<svg xmlns="http://www.w3.org/2000/svg" xmlns:xlink="http://www.w3.org/1999/xlink" width="1080" zoomAndPan="magnify" viewBox="0 0 810 1012.49997" height="1350" preserveAspectRatio="xMidYMid meet" version="1.0"><defs><clipPath id="6193a52c27"><path d="M 24.09375 189 L 785.71875 189 L 785.71875 767.621094 L 24.09375 767.621094 Z M 24.09375 189 " clip-rule="nonzero"/></clipPath><clipPath id="94e9ca2030"><path d="M 24.09375 212 L 235 212 L 235 723 L 24.09375 723 Z M 24.09375 212 " clip-rule="nonzero"/></clipPath><clipPath id="eca3db67e3"><path d="M 187 392 L 460 392 L 460 767.621094 L 187 767.621094 Z M 187 392 " clip-rule="nonzero"/></clipPath><clipPath id="371230da7c"><path d="M 675 189 L 785.71875 189 L 785.71875 489 L 675 489 Z M 675 189 " clip-rule="nonzero"/></clipPath><clipPath id="119f31ab5f"><path d="M 0.199219 738 L 809.800781 738 L 809.800781 1012 L 0.199219 1012 Z M 0.199219 738 " clip-rule="nonzero"/></clipPath><clipPath id="d49fcb418c"><path d="M 1136.054688 1959.855469 L -260.222656 1351.011719 L 143.074219 426.117188 L 1539.355469 1034.960938 Z M 1136.054688 1959.855469 " clip-rule="nonzero"/></clipPath><clipPath id="19b8ba753a"><path d="M 1136.054688 1959.855469 L -260.222656 1351.011719 L 143.074219 426.117188 L 1539.355469 1034.960938 Z M 1136.054688 1959.855469 " clip-rule="nonzero"/></clipPath></defs><g clip-path="url(#6193a52c27)"><path fill="#ffffff" d="M 234.367188 499.945312 C 234.367188 499.945312 234.695312 499.945312 234.835938 499.945312 C 234.085938 482.972656 233.433594 465.957031 232.542969 448.988281 C 231.75 433.792969 230.722656 418.648438 229.738281 403.453125 C 229.550781 400.324219 228.992188 397.238281 228.617188 394.152344 C 227.824219 387.28125 227.074219 380.40625 226.328125 373.535156 C 225.578125 366.664062 224.925781 359.746094 224.175781 352.875 C 223.753906 348.898438 223.101562 344.925781 222.679688 340.90625 C 220.996094 325.804688 219.40625 310.753906 217.726562 295.652344 C 217.679688 295.234375 217.585938 294.765625 217.492188 294.34375 C 215.527344 282.46875 213.003906 270.644531 211.695312 258.722656 C 210.480469 247.828125 206.316406 237.546875 206.597656 226.371094 C 206.691406 221.742188 203.1875 218.800781 198.511719 218.003906 C 189.910156 216.554688 181.261719 215.292969 172.753906 213.515625 C 166.300781 212.160156 160.222656 211.601562 153.726562 213.890625 C 146.855469 216.320312 144.46875 217.863281 144.5625 224.96875 C 144.703125 241.753906 144.890625 258.535156 145.683594 275.269531 C 146.292969 289.109375 147.742188 302.898438 148.910156 316.738281 C 149.191406 319.867188 149.800781 322.953125 150.21875 326.039062 C 151.0625 332.023438 151.949219 337.960938 152.652344 343.945312 C 154.242188 357.222656 155.738281 370.542969 157.371094 383.820312 C 157.605469 385.785156 158.449219 387.699219 158.679688 389.710938 C 159.242188 395.273438 159.757812 400.789062 160.039062 406.351562 C 160.222656 410 158.308594 412.148438 154.566406 412.710938 C 147.695312 413.691406 140.871094 415.09375 134 415.796875 C 125.398438 416.683594 122.453125 414.113281 120.957031 405.464844 C 116.703125 380.5 116.1875 355.164062 114.550781 330.011719 C 113.289062 310.425781 114.597656 290.652344 114.785156 270.96875 C 114.785156 267.605469 114.878906 264.238281 114.785156 260.917969 C 114.691406 257.226562 113.570312 253.953125 110.578125 251.429688 C 101.742188 243.996094 92.390625 237.871094 80.285156 237.40625 C 72.242188 237.125 64.203125 236.375 56.164062 236.28125 C 48.824219 236.234375 41.390625 236.421875 34.097656 237.21875 C 27.972656 237.871094 24.746094 241.378906 24.5625 246.613281 C 23.90625 269.894531 23.4375 293.128906 26.804688 316.269531 C 27.550781 321.363281 27.832031 326.507812 28.394531 331.601562 C 28.953125 336.699219 29.515625 341.792969 30.125 346.890625 C 30.824219 352.640625 31.527344 358.4375 32.226562 364.1875 C 33.957031 378.351562 35.640625 392.5625 37.371094 406.726562 C 37.417969 407.148438 37.601562 407.617188 37.648438 408.035156 C 38.445312 415.140625 39.378906 422.199219 39.988281 429.308594 C 40.363281 433.746094 40.082031 438.234375 40.363281 442.722656 C 41.53125 462.824219 42.746094 482.878906 43.960938 502.980469 C 44.242188 507.890625 44.242188 512.894531 45.175781 517.660156 C 47.5625 529.628906 47.609375 541.691406 47.792969 553.75 C 47.886719 558.894531 48.074219 564.035156 48.355469 569.179688 C 49.382812 586.335938 51.441406 603.539062 51.300781 620.695312 C 51.066406 650.050781 52.890625 679.222656 55.789062 708.394531 C 56.300781 713.769531 58.6875 717.929688 63.640625 719.894531 C 67.101562 721.296875 70.839844 722.277344 74.535156 722.605469 C 82.855469 723.449219 90.804688 721.25 98.9375 719.378906 C 108.988281 717.089844 118.105469 713.488281 126.097656 707.085938 C 131.613281 702.644531 137.832031 698.34375 139.28125 690.910156 C 140.496094 684.832031 141.476562 678.382812 140.589844 672.351562 C 138.8125 660.429688 137.738281 648.417969 135.867188 636.542969 C 134.371094 627.003906 133.625 617.46875 133.203125 607.886719 C 132.921875 601.199219 132.363281 594.515625 131.800781 587.832031 C 131.007812 577.828125 129.835938 567.820312 129.324219 557.769531 C 128.621094 543.933594 128.433594 530.097656 126.285156 516.304688 C 124.929688 507.515625 123.949219 498.679688 122.171875 489.9375 C 120.816406 483.488281 122.265625 481.710938 128.574219 479.46875 C 129.835938 479.046875 131.195312 478.625 132.503906 478.625 C 138.300781 478.625 144.238281 478.066406 149.941406 478.90625 C 156.71875 479.886719 163.027344 482.414062 164.664062 490.453125 C 166.207031 498.121094 168.40625 505.601562 168.40625 513.546875 C 168.40625 517.941406 169.621094 522.382812 170.273438 526.777344 C 170.835938 530.515625 171.445312 534.257812 171.910156 538.042969 C 173.125 548.46875 174.0625 558.941406 175.464844 569.316406 C 176.539062 577.546875 181.914062 580.585938 189.863281 577.917969 C 192.386719 577.078125 194.910156 576.144531 197.4375 575.347656 C 205.664062 572.730469 214.171875 570.71875 222.074219 567.355469 C 229.550781 564.175781 234.695312 558.707031 234.507812 549.449219 C 234.179688 532.902344 234.414062 516.351562 234.414062 499.804688 Z M 462.964844 613.449219 C 462.964844 613.449219 463.011719 613.449219 463.058594 613.449219 C 463.058594 621.070312 462.917969 628.6875 463.152344 636.261719 C 463.246094 639.582031 463.855469 642.898438 464.695312 646.125 C 466.519531 653.230469 468.578125 660.289062 470.585938 667.347656 C 473.484375 677.398438 476.335938 687.496094 479.5625 697.457031 C 480.683594 701.007812 482.320312 704.5625 484.472656 707.601562 C 489.144531 714.144531 494.242188 720.503906 501.113281 724.898438 C 508.21875 729.429688 515.277344 734.199219 522.945312 737.660156 C 529.164062 740.464844 536.316406 741.023438 542.8125 743.222656 C 554.640625 747.289062 566.65625 746.773438 578.621094 745.183594 C 588.4375 743.875 597.273438 739.390625 605.828125 734.480469 C 618.636719 727.09375 629.53125 717.183594 636.824219 704.609375 C 646.125 688.527344 651.316406 670.714844 653.417969 652.109375 C 653.746094 649.257812 654.589844 646.40625 655.148438 643.554688 C 655.757812 640.46875 656.878906 637.382812 656.832031 634.34375 C 656.503906 615.457031 659.496094 596.433594 653.886719 577.6875 C 651.082031 568.335938 649.023438 558.753906 644.957031 549.824219 C 641.171875 541.597656 635.46875 534.628906 628.035156 529.394531 C 622.425781 525.421875 616.488281 521.960938 610.644531 518.363281 C 603.539062 513.96875 595.542969 511.023438 587.503906 510.042969 C 577.96875 508.871094 568.523438 507.75 559.082031 505.972656 C 548.046875 503.917969 537.578125 500.269531 527.105469 496.53125 C 523.179688 495.128906 519.390625 492.976562 515.886719 490.6875 C 511.117188 487.601562 509.339844 482.554688 510.136719 477.222656 C 510.929688 471.988281 514.765625 468.761719 519.71875 466.9375 C 522.429688 465.957031 525.140625 464.507812 527.945312 464.132812 C 534.070312 463.292969 540.289062 462.730469 546.507812 462.542969 C 550.855469 462.40625 554.5 464.367188 558.238281 466.707031 C 565.34375 471.148438 569.644531 477.972656 574.367188 484.375 C 581.800781 494.425781 591.335938 499.054688 603.773438 497.933594 C 609.195312 497.417969 610.597656 496.71875 611.53125 491.480469 C 612.421875 486.433594 612.933594 481.289062 613.167969 476.195312 C 613.730469 463.246094 614.199219 450.296875 614.429688 437.300781 C 614.429688 435.011719 613.261719 432.671875 612.515625 430.382812 C 609.289062 420.472656 600.171875 418.414062 591.992188 416.824219 C 580.960938 414.675781 570.675781 410.699219 560.203125 407.148438 C 552.675781 404.578125 545.570312 400.554688 537.296875 400.417969 C 535.753906 400.417969 534.210938 399.855469 532.714844 399.433594 C 520.375 396.253906 508.875 398.359375 498.261719 405.136719 C 495.691406 406.773438 493.585938 409.25 491.625 411.636719 C 484.144531 420.519531 477.132812 429.445312 473.578125 440.992188 C 472.035156 445.949219 472.035156 451.183594 470.117188 455.8125 C 466.894531 463.527344 467.128906 471.566406 466.285156 479.515625 C 466.097656 481.523438 465.632812 483.488281 465.492188 485.5 C 464.742188 495.082031 463.386719 504.664062 463.527344 514.203125 C 463.621094 522.476562 465.726562 530.65625 471.523438 537.15625 C 475.496094 541.597656 480.964844 543.652344 486.246094 546.132812 C 500.320312 552.675781 514.71875 551.835938 528.648438 546.878906 C 537.71875 543.652344 546.691406 540.425781 556.089844 538.699219 C 562.214844 537.574219 568.195312 539.164062 571.5625 544.402344 C 579.835938 557.492188 588.90625 570.019531 592.226562 585.960938 C 594.84375 598.300781 596.152344 610.644531 597.039062 623.078125 C 597.320312 627.191406 596.527344 631.585938 595.265625 635.558594 C 594.5625 637.757812 592.085938 640.5625 590.027344 640.9375 C 584.839844 641.871094 579.417969 642.386719 574.273438 639.863281 C 559.457031 632.476562 549.824219 619.574219 541.644531 606.203125 C 535.941406 596.898438 533.371094 585.632812 532.855469 574.320312 C 532.527344 567.121094 529.300781 563.988281 522.242188 564.457031 C 515.371094 564.921875 508.546875 566.328125 501.675781 567.121094 C 491.855469 568.242188 482.648438 571.375 473.53125 575.113281 C 466.472656 578.058594 463.105469 583.15625 463.058594 590.636719 C 463.058594 598.253906 463.058594 605.828125 463.058594 613.449219 Z M 407.054688 490.21875 C 407.054688 490.21875 407.054688 489.894531 407.101562 489.707031 C 411.589844 489.707031 416.125 490.21875 420.519531 489.613281 C 428.324219 488.535156 435.898438 486.433594 440.621094 479.234375 C 443.425781 474.980469 446.136719 470.585938 448.613281 466.097656 C 452.121094 459.878906 455.582031 453.617188 455.628906 446.136719 C 455.628906 444.125 455.953125 442.070312 456.5625 440.199219 C 459.273438 431.503906 458.851562 422.527344 459.179688 413.597656 C 459.367188 407.941406 457.078125 403.082031 454.597656 398.359375 C 453.101562 395.554688 450.671875 393.171875 446.746094 392.84375 C 431.785156 391.488281 417.433594 393.21875 403.550781 399.199219 C 395.789062 402.519531 387.796875 405.277344 379.847656 408.128906 C 366.851562 412.804688 353.902344 417.480469 340.8125 421.921875 C 331.976562 424.914062 323.050781 427.484375 313.558594 427.996094 C 301.125 428.699219 291.261719 434.167969 286.210938 446.042969 C 282.660156 454.410156 279.898438 463.152344 277 471.800781 C 273.917969 481.058594 271.390625 490.546875 267.980469 499.664062 C 263.351562 512.144531 258.164062 524.394531 253.160156 536.734375 C 248.71875 547.671875 244.371094 558.660156 239.695312 569.457031 C 236.890625 576.003906 232.589844 582.035156 230.582031 588.765625 C 227.121094 600.546875 220.53125 610.925781 217.445312 622.890625 C 215.058594 632.101562 210.992188 640.84375 207.71875 649.820312 C 206.132812 654.214844 204.496094 658.609375 203.09375 663.046875 C 199.960938 672.820312 196.96875 682.589844 193.976562 692.359375 C 193.136719 695.117188 192.246094 697.875 191.6875 700.726562 C 190.515625 706.382812 189.113281 712.085938 188.554688 717.789062 C 187.898438 724.007812 187.011719 730.460938 188.179688 736.445312 C 189.347656 742.378906 192.058594 748.503906 195.707031 753.320312 C 204.027344 764.257812 216.601562 767.71875 229.503906 767.625 C 240.257812 767.578125 250.308594 763.839844 259.191406 756.824219 C 265.035156 752.246094 268.914062 746.308594 272.46875 740.324219 C 276.019531 734.292969 278.964844 727.421875 280.273438 720.550781 C 282.566406 708.535156 283.40625 696.238281 284.855469 684.039062 C 285.183594 681.140625 285.648438 678.289062 285.976562 675.390625 C 286.632812 669.828125 287.707031 664.3125 287.847656 658.746094 C 288.363281 640.890625 288.59375 622.984375 292.289062 605.359375 C 294.765625 593.582031 298.738281 589.046875 310.707031 586.753906 C 313.324219 586.242188 315.847656 585.445312 318.46875 584.792969 C 320.851562 584.230469 323.1875 583.390625 325.574219 583.203125 C 344.972656 581.753906 364.375 580.398438 383.773438 578.996094 C 385.316406 578.902344 386.859375 578.621094 388.402344 578.339844 C 394.292969 577.359375 400.183594 575.722656 406.121094 575.535156 C 416.640625 575.207031 427.0625 574.695312 437.253906 571.65625 C 441.789062 570.300781 445.53125 568.148438 447.867188 564.128906 C 450.203125 560.109375 452.683594 555.949219 453.851562 551.507812 C 455.859375 543.746094 457.824219 535.707031 455.628906 527.710938 C 454.644531 524.066406 452.449219 519.859375 449.503906 517.753906 C 440.714844 511.492188 430.570312 512.238281 420.613281 514.4375 C 412.386719 516.257812 404.25 518.644531 396.117188 520.886719 C 391.863281 522.054688 387.609375 523.363281 383.355469 524.578125 C 377.183594 526.355469 370.964844 528.179688 364.75 529.722656 C 356.101562 531.871094 347.453125 533.882812 338.757812 535.800781 C 336.839844 536.21875 334.734375 536.171875 332.726562 535.941406 C 320.289062 534.675781 315.523438 523.878906 321.226562 514.0625 C 326.554688 504.851562 335.25 498.542969 344.972656 494.101562 C 354.230469 489.847656 364.328125 489.050781 374.285156 487.835938 C 378.257812 487.367188 382.324219 487.554688 386.347656 487.835938 C 393.21875 488.398438 400.089844 489.285156 406.960938 490.03125 Z M 597.226562 299.8125 C 597.226562 299.582031 597.226562 299.347656 597.226562 299.113281 C 608.167969 299.113281 619.152344 299.207031 630.09375 299.113281 C 635.5625 299.019531 640.75 295.464844 641.03125 290.371094 C 641.40625 282.84375 641.5 275.039062 639.816406 267.792969 C 637.476562 257.878906 634.394531 256.898438 624.15625 258.582031 C 618.453125 259.515625 612.65625 260.078125 606.859375 260.359375 C 595.683594 260.871094 584.464844 260.359375 573.574219 263.628906 C 572.078125 264.097656 569.925781 263.769531 568.523438 262.976562 C 565.160156 261.058594 563.195312 254.980469 564.363281 251.007812 C 565.625 246.660156 569.226562 246.007812 572.917969 246.101562 C 580.492188 246.285156 588.113281 246.941406 595.683594 247.082031 C 609.101562 247.363281 622.519531 247.78125 635.9375 247.503906 C 646.265625 247.269531 648.652344 240.445312 646.78125 232.355469 C 644.722656 223.519531 641.730469 214.871094 638.414062 206.410156 C 634.207031 195.519531 631.121094 193.554688 619.667969 194.628906 C 604.800781 196.03125 589.886719 197.621094 575.117188 199.960938 C 555.902344 202.996094 536.59375 204.960938 517.195312 206.269531 C 510.277344 206.738281 503.21875 206.550781 496.53125 208.09375 C 482.554688 211.320312 481.527344 211.507812 482.835938 226.511719 C 483.253906 231.375 485.03125 236.050781 485.96875 240.863281 C 487.882812 250.960938 489.660156 261.058594 491.484375 271.15625 C 492.464844 276.625 492.933594 282.285156 494.617188 287.566406 C 498.964844 301.121094 498.964844 315.335938 501.675781 329.078125 C 503.265625 337.164062 504.574219 345.300781 506.117188 353.386719 C 506.347656 354.648438 507.191406 355.863281 507.9375 356.941406 C 515.792969 368.722656 527.386719 375.96875 540.054688 380.828125 C 551.835938 385.363281 563.894531 389.476562 576.660156 391.113281 C 586.804688 392.421875 596.761719 395.320312 606.953125 396.535156 C 618.777344 397.9375 630.1875 400.648438 641.5 404.109375 C 650.472656 406.867188 659.355469 402.847656 660.617188 394.804688 C 662.019531 386.019531 663.050781 376.949219 662.441406 368.160156 C 661.601562 355.726562 659.03125 343.382812 657.347656 330.996094 C 656.738281 326.320312 654.261719 323.65625 649.773438 322.859375 C 647.390625 322.441406 644.910156 322.113281 642.480469 322.160156 C 632.851562 322.394531 623.265625 322.671875 613.636719 323.28125 C 609.242188 323.5625 604.800781 324.449219 600.5 325.570312 C 591.292969 327.957031 581.941406 328.5625 572.546875 327.582031 C 565.90625 326.882812 561.277344 322.019531 559.875 315.519531 C 559.410156 313.324219 558.800781 311.171875 558.191406 309.023438 C 556.183594 302.199219 557.820312 299.90625 564.972656 299.90625 C 575.722656 299.90625 586.429688 299.90625 597.179688 299.90625 Z M 723.074219 261.902344 C 723.074219 261.902344 722.980469 261.902344 722.933594 261.902344 C 722.933594 249.136719 722.933594 236.421875 722.933594 223.660156 C 722.933594 214.917969 723.167969 206.222656 723.261719 197.480469 C 723.261719 195.050781 723.589844 192.011719 720.738281 191.125 C 717.183594 190.003906 713.257812 188.738281 709.703125 189.160156 C 701.757812 190.140625 693.902344 191.964844 686.097656 193.695312 C 675.671875 195.984375 675.71875 196.078125 675.15625 206.691406 C 675.109375 208.046875 675.15625 209.355469 675.15625 210.710938 C 675.578125 224.550781 676 238.433594 676.464844 252.269531 C 676.699219 258.957031 676.371094 265.828125 677.777344 272.324219 C 679.878906 282.097656 680.347656 291.820312 679.972656 301.683594 C 679.269531 318.417969 677.867188 335.15625 677.355469 351.890625 C 676.699219 374.003906 677.261719 396.210938 676 418.273438 C 675.34375 429.773438 680.394531 436.832031 688.714844 442.957031 C 689.089844 443.238281 689.507812 443.378906 689.882812 443.660156 C 697.269531 448.660156 704.703125 453.476562 711.949219 458.664062 C 722.28125 466.050781 732.285156 473.859375 742.617188 481.152344 C 750.09375 486.433594 758.558594 489.285156 767.859375 488.304688 C 777.394531 487.320312 780.714844 483.957031 781.882812 474.464844 C 782.117188 472.6875 782.257812 470.914062 782.351562 469.136719 C 783.472656 452.632812 784.59375 436.132812 785.765625 419.628906 C 786.464844 409.625 783.519531 405.183594 774.496094 400.648438 C 762.015625 394.386719 748.644531 390.039062 736.867188 382.136719 C 733.03125 379.566406 730.132812 377.136719 729.105469 372.835938 C 728.171875 368.953125 727.421875 364.980469 727.046875 361.007812 C 726.394531 354.324219 726.019531 347.636719 725.550781 340.953125 C 724.710938 329.125 723.496094 317.34375 723.167969 305.515625 C 722.746094 290.976562 723.074219 276.441406 723.074219 261.902344 Z M 623.875 465.675781 C 623.875 470.585938 623.640625 474.183594 623.921875 477.691406 C 624.480469 484.5625 625.746094 491.433594 626.023438 498.308594 C 626.257812 505.367188 628.035156 512.003906 630.371094 518.503906 C 631.214844 520.839844 633.222656 523.222656 635.328125 524.488281 C 638.554688 526.355469 642.292969 527.570312 645.941406 528.507812 C 654.542969 530.65625 663.097656 532.808594 671.417969 536.171875 C 676.699219 538.324219 678.898438 542.015625 680.113281 546.972656 C 680.8125 549.777344 681.234375 552.628906 681.796875 555.480469 C 682.589844 559.640625 683.570312 563.753906 684.179688 567.914062 C 685.722656 577.828125 686.285156 587.972656 688.761719 597.648438 C 690.722656 605.359375 691.566406 612.980469 691.988281 620.789062 C 692.128906 623.6875 692.453125 626.585938 692.875 629.4375 C 693.761719 635.140625 694.933594 640.796875 695.726562 646.5 C 697.363281 658.421875 698.859375 670.386719 700.449219 682.308594 C 700.542969 682.964844 700.867188 683.570312 701.007812 684.226562 C 701.851562 689.273438 702.785156 694.324219 703.535156 699.371094 C 703.953125 702.222656 703.765625 705.214844 704.328125 708.019531 C 705.589844 714.144531 711.246094 718.773438 716.949219 717.417969 C 723.542969 715.875 729.804688 716.621094 736.210938 717.882812 C 739.714844 718.585938 743.222656 719.332031 746.730469 719.941406 C 752.386719 720.921875 754.769531 719.425781 754.582031 714.003906 C 754.394531 708.019531 754.816406 701.941406 752.152344 696.191406 C 751.214844 694.230469 750.9375 691.890625 750.46875 689.742188 C 748.597656 681.046875 746.824219 672.304688 744.953125 663.5625 C 742.941406 654.214844 740.652344 644.910156 738.921875 635.515625 C 737.003906 625.417969 735.601562 615.273438 733.917969 605.128906 C 733.6875 603.585938 733.171875 602.089844 732.796875 600.59375 C 730.976562 592.550781 728.964844 584.558594 727.328125 576.515625 C 726.347656 571.65625 728.683594 569.550781 733.78125 570.066406 C 734.902344 570.160156 735.976562 570.535156 737.097656 570.628906 C 742.429688 571.140625 747.757812 571.796875 753.132812 571.984375 C 759.820312 572.261719 761.59375 570.347656 761.59375 563.800781 C 761.59375 563.148438 761.59375 562.445312 761.5 561.792969 C 759.585938 548.796875 757.574219 535.707031 753.085938 523.316406 C 751.078125 517.753906 748.691406 512.097656 744.203125 507.796875 C 737.097656 501.019531 728.964844 495.457031 720.738281 490.265625 C 706.386719 481.246094 691.707031 472.875 677.167969 464.179688 C 674.503906 462.589844 672.070312 460.394531 669.265625 459.367188 C 659.496094 455.71875 649.585938 452.449219 639.769531 448.988281 C 636.871094 447.960938 633.972656 447.632812 631.402344 449.410156 C 626.445312 452.820312 622.144531 456.703125 623.78125 463.667969 C 624.015625 464.742188 623.96875 465.910156 623.921875 465.628906 Z M 416.21875 210.851562 C 398.3125 208.421875 380.691406 212.160156 363.066406 214.777344 C 354.835938 215.992188 347.546875 220.574219 344.132812 228.195312 C 341.28125 234.554688 339.785156 241.9375 339.457031 249 C 338.988281 260.59375 339.738281 272.230469 340.390625 283.824219 C 340.8125 291.164062 341.792969 298.503906 342.917969 305.796875 C 344.132812 313.980469 345.300781 322.160156 347.3125 330.152344 C 349.320312 338.148438 352.03125 345.953125 354.976562 353.621094 C 356.472656 357.5 358.390625 362.035156 361.523438 364.1875 C 366.152344 367.367188 371.667969 369.28125 377.699219 370.03125 C 397.191406 372.414062 416.03125 368.253906 434.871094 364.886719 C 446.230469 362.878906 457.214844 359.042969 468.808594 357.734375 C 475.730469 356.941406 481.199219 351.609375 481.386719 345.722656 C 481.804688 333.050781 483.535156 320.335938 478.488281 307.996094 C 475.636719 300.984375 473.71875 293.597656 470.773438 286.632812 C 469.792969 284.246094 467.035156 281.347656 464.789062 281.066406 C 460.023438 280.460938 454.785156 280.460938 450.25 281.910156 C 446.089844 283.21875 442.210938 284.199219 437.910156 284.011719 C 435.480469 283.917969 433 284.058594 430.570312 284.433594 C 426.269531 285.042969 424.773438 286.492188 423.933594 290.746094 C 423.605469 292.472656 423.511719 294.296875 423.558594 296.074219 C 424.023438 307.667969 425.054688 308.554688 436.601562 308.367188 C 438.515625 308.367188 440.902344 308.414062 442.257812 309.492188 C 447.679688 313.699219 446.183594 322.253906 439.546875 324.214844 C 432.71875 326.226562 425.800781 328.050781 418.789062 329.078125 C 413.742188 329.828125 408.738281 327.910156 406.121094 323.140625 C 401.726562 315.195312 396.816406 307.339844 396.957031 297.664062 C 396.957031 295.886719 396.492188 294.109375 396.164062 292.382812 C 394.902344 286.304688 393.453125 280.226562 392.328125 274.101562 C 391.207031 267.929688 393.5 263.957031 398.78125 260.871094 C 404.953125 257.320312 411.636719 257.414062 418.320312 257.367188 C 426.96875 257.367188 435.804688 255.964844 443.847656 260.730469 C 445.109375 261.480469 446.839844 261.621094 448.382812 261.855469 C 455.347656 262.929688 459.507812 260.3125 461.515625 253.578125 C 461.9375 252.082031 462.265625 250.496094 462.21875 248.953125 C 461.890625 241.144531 461.84375 233.289062 460.863281 225.53125 C 459.554688 215.105469 456.890625 212.816406 446.511719 211.367188 C 444.96875 211.132812 443.378906 210.898438 441.835938 210.898438 C 433.328125 210.851562 424.867188 210.898438 416.21875 210.898438 Z M 314.773438 676.652344 L 315.804688 676.652344 C 315.804688 690.582031 315.847656 704.421875 315.804688 718.304688 C 315.804688 723.402344 317.484375 727.75 321.832031 730.273438 C 325.011719 732.144531 328.84375 733.636719 332.492188 733.871094 C 340.953125 734.433594 349.460938 734.292969 357.921875 734.199219 C 364.84375 734.152344 371.761719 733.683594 378.726562 733.636719 C 389.246094 733.546875 399.761719 733.546875 410.234375 733.636719 C 417.152344 733.730469 424.070312 734.058594 430.992188 734.246094 C 433.234375 734.292969 435.480469 734.480469 437.675781 734.292969 C 445.902344 733.59375 451.652344 727.703125 451.886719 719.472656 C 452.027344 713.675781 452.308594 707.738281 451.375 702.082031 C 449.269531 689.226562 443.988281 685.394531 432.90625 684.832031 C 426.96875 684.507812 420.894531 685.582031 414.957031 686.515625 C 405.839844 687.964844 396.722656 688.667969 387.65625 686.703125 C 385.128906 686.140625 382.605469 684.925781 380.457031 683.429688 C 377.746094 681.5625 376.714844 675.949219 378.257812 673.007812 C 380.222656 669.171875 383.308594 670.808594 386.441406 671.230469 C 391.488281 671.929688 396.675781 672.445312 401.773438 672.070312 C 409.625 671.511719 412.945312 667.257812 412.851562 659.261719 C 412.851562 657.484375 412.851562 655.664062 412.804688 653.886719 C 412.476562 647.949219 409.300781 644.253906 403.457031 643.601562 C 400.605469 643.273438 397.707031 643.882812 394.808594 644.023438 C 388.777344 644.300781 382.746094 644.910156 376.761719 644.722656 C 371.433594 644.582031 370.359375 642.945312 370.171875 637.523438 C 370.171875 636.167969 370.21875 634.859375 370.265625 633.503906 C 370.359375 631.121094 371.667969 629.855469 373.957031 629.484375 C 383.214844 628.035156 392.328125 626.539062 401.914062 628.269531 C 409.71875 629.671875 417.902344 629.203125 425.894531 629.390625 C 429.867188 629.484375 431.878906 627.097656 432.71875 623.359375 C 434.449219 615.644531 433.375 608.074219 430.898438 600.921875 C 428.1875 593.160156 421.640625 588.8125 415.328125 589.28125 C 407.289062 589.886719 399.203125 590.074219 391.347656 591.570312 C 375.59375 594.5625 359.746094 594.609375 343.898438 594.75 C 339.222656 594.75 334.503906 594.796875 329.828125 595.308594 C 322.816406 596.058594 319.449219 599.609375 319.027344 606.4375 C 317.625 629.855469 316.316406 653.277344 314.960938 676.746094 Z M 286.210938 356.660156 C 284.949219 355.351562 283.03125 354.183594 282.378906 352.5 C 280.320312 347.125 278.496094 341.605469 277 336.042969 C 275.972656 332.210938 275.503906 328.144531 274.898438 324.214844 C 274.242188 320.007812 273.542969 315.847656 273.167969 311.59375 C 272.328125 302.480469 271.625 293.363281 270.972656 284.199219 C 270.597656 278.871094 270.597656 273.496094 270.128906 268.117188 C 269.617188 261.902344 267.464844 260.265625 261.339844 261.246094 C 259.609375 261.527344 257.976562 262.320312 256.246094 262.835938 C 254.09375 263.445312 251.992188 264.472656 249.839844 264.566406 C 244.605469 264.707031 239.789062 266.0625 234.929688 267.929688 C 227.402344 270.828125 226.09375 271.859375 226.1875 279.898438 C 226.328125 290.417969 226.464844 300.9375 227.261719 311.40625 C 227.914062 319.589844 229.597656 327.722656 230.859375 335.855469 C 231.046875 337.164062 231.75 338.382812 232.03125 339.691406 C 232.683594 342.496094 233.292969 345.347656 233.898438 348.152344 C 235.675781 356.425781 237.265625 364.699219 239.230469 372.929688 C 241.144531 381.15625 243.390625 389.289062 245.585938 397.472656 C 246.707031 401.773438 248.34375 405.933594 249.234375 410.28125 C 251.804688 422.714844 260.078125 428.042969 271.296875 422.902344 C 283.546875 417.246094 295.46875 410.746094 307.0625 403.828125 C 314.632812 399.292969 320.617188 392.46875 323.046875 383.820312 C 327.304688 368.347656 327.304688 352.5 325.761719 336.558594 C 324.730469 325.898438 323.5625 315.148438 323.609375 304.488281 C 323.609375 293.597656 322.019531 283.125 319.355469 272.746094 C 318.28125 268.632812 315.894531 265.828125 311.96875 263.863281 C 305.285156 260.546875 298.367188 261.667969 291.632812 262.695312 C 287.753906 263.304688 284.902344 266.480469 284.855469 270.828125 C 284.855469 275.039062 284.574219 279.570312 285.976562 283.453125 C 288.410156 290.136719 288.546875 297.007812 289.15625 303.882812 C 289.296875 305.421875 289.484375 307.011719 289.902344 308.507812 C 293.738281 321.878906 292.148438 335.625 292.289062 349.179688 C 292.289062 352.964844 290.511719 355.492188 286.257812 356.707031 Z M 257.273438 238.902344 C 256.199219 234.832031 255.496094 230.625 254 226.746094 C 251.945312 221.464844 244.839844 217.628906 239.929688 218.519531 C 235.910156 219.265625 230.90625 224.875 230.207031 229.410156 C 229.039062 237.40625 233.621094 245.773438 241.050781 249 C 250.449219 253.113281 256.433594 249.324219 257.273438 238.902344 Z M 304.910156 236.65625 C 305.144531 231.609375 302.105469 227.820312 296.824219 225.015625 C 291.632812 222.210938 287.800781 225.390625 283.6875 227.167969 C 282.378906 227.726562 281.394531 229.878906 281.023438 231.46875 C 280.507812 233.617188 280.601562 235.910156 280.742188 238.105469 C 281.210938 245.304688 288.082031 251.101562 295.421875 250.679688 C 301.589844 250.308594 305.003906 245.679688 304.863281 236.65625 Z M 304.910156 236.65625 " fill-opacity="1" fill-rule="nonzero"/></g><g clip-path="url(#94e9ca2030)"><path fill="#ff8210" d="M 234.367188 499.945312 C 234.367188 516.492188 234.132812 533.042969 234.460938 549.589844 C 234.648438 558.847656 229.503906 564.316406 222.027344 567.496094 C 214.078125 570.859375 205.617188 572.871094 197.390625 575.488281 C 194.863281 576.285156 192.339844 577.21875 189.816406 578.058594 C 181.820312 580.679688 176.492188 577.6875 175.417969 569.457031 C 174.015625 559.082031 173.082031 548.609375 171.863281 538.183594 C 171.445312 534.398438 170.789062 530.65625 170.226562 526.917969 C 169.574219 522.523438 168.359375 518.082031 168.359375 513.6875 C 168.359375 505.742188 166.113281 498.261719 164.617188 490.59375 C 163.027344 482.554688 156.671875 480.027344 149.894531 479.046875 C 144.191406 478.207031 138.300781 478.71875 132.457031 478.765625 C 131.148438 478.765625 129.792969 479.1875 128.527344 479.609375 C 122.265625 481.851562 120.816406 483.628906 122.125 490.078125 C 123.949219 498.820312 124.882812 507.65625 126.238281 516.445312 C 128.386719 530.238281 128.574219 544.027344 129.277344 557.910156 C 129.792969 567.960938 130.960938 577.964844 131.753906 587.972656 C 132.316406 594.65625 132.875 601.339844 133.15625 608.027344 C 133.53125 617.65625 134.277344 627.144531 135.820312 636.683594 C 137.691406 648.554688 138.765625 660.570312 140.542969 672.492188 C 141.429688 678.476562 140.449219 684.972656 139.234375 691.050781 C 137.785156 698.484375 131.566406 702.785156 126.050781 707.226562 C 118.058594 713.628906 108.941406 717.230469 98.890625 719.519531 C 90.757812 721.390625 82.808594 723.539062 74.488281 722.746094 C 70.792969 722.371094 67.054688 721.390625 63.59375 720.035156 C 58.59375 718.023438 56.257812 713.863281 55.742188 708.535156 C 52.84375 679.363281 51.019531 650.191406 51.253906 620.835938 C 51.394531 603.679688 49.335938 586.476562 48.308594 569.316406 C 48.027344 564.175781 47.839844 559.035156 47.746094 553.890625 C 47.515625 541.828125 47.515625 529.769531 45.128906 517.800781 C 44.195312 513.03125 44.195312 508.03125 43.914062 503.121094 C 42.699219 483.019531 41.484375 462.964844 40.316406 442.863281 C 40.082031 438.421875 40.316406 433.886719 39.941406 429.445312 C 39.332031 422.339844 38.398438 415.234375 37.601562 408.175781 C 37.554688 407.753906 37.371094 407.289062 37.324219 406.867188 C 35.59375 392.703125 33.863281 378.492188 32.179688 364.328125 C 31.480469 358.578125 30.777344 352.78125 30.078125 347.03125 C 29.46875 341.933594 28.90625 336.839844 28.347656 331.742188 C 27.785156 326.648438 27.503906 321.503906 26.757812 316.410156 C 23.4375 293.175781 23.90625 269.941406 24.5625 246.660156 C 24.699219 241.425781 27.972656 237.964844 34.097656 237.265625 C 41.390625 236.46875 48.824219 236.234375 56.164062 236.328125 C 64.203125 236.375 72.242188 237.125 80.285156 237.453125 C 92.34375 237.871094 101.742188 244.042969 110.578125 251.476562 C 113.570312 254 114.691406 257.226562 114.785156 260.964844 C 114.878906 264.332031 114.785156 267.699219 114.785156 271.015625 C 114.597656 290.699219 113.289062 310.472656 114.550781 330.058594 C 116.1875 355.210938 116.703125 380.546875 120.957031 405.511719 C 122.453125 414.160156 125.398438 416.730469 134 415.84375 C 140.871094 415.140625 147.695312 413.785156 154.566406 412.757812 C 158.308594 412.195312 160.222656 410.046875 160.039062 406.398438 C 159.757812 400.835938 159.242188 395.273438 158.679688 389.757812 C 158.496094 387.792969 157.605469 385.878906 157.371094 383.867188 C 155.738281 370.589844 154.289062 357.269531 152.652344 343.992188 C 151.902344 338.007812 151.015625 332.023438 150.21875 326.085938 C 149.800781 323 149.191406 319.914062 148.910156 316.785156 C 147.742188 302.992188 146.339844 289.15625 145.6875 275.316406 C 144.9375 258.582031 144.703125 241.800781 144.5625 225.015625 C 144.515625 217.910156 146.902344 216.414062 153.726562 213.9375 C 160.222656 211.601562 166.300781 212.207031 172.753906 213.5625 C 181.308594 215.339844 189.957031 216.601562 198.511719 218.050781 C 203.140625 218.847656 206.691406 221.746094 206.597656 226.417969 C 206.316406 237.546875 210.480469 247.875 211.695312 258.769531 C 213.003906 270.691406 215.527344 282.515625 217.492188 294.390625 C 217.585938 294.8125 217.679688 295.28125 217.726562 295.699219 C 219.359375 310.800781 220.996094 325.851562 222.679688 340.953125 C 223.101562 344.925781 223.753906 348.898438 224.175781 352.921875 C 224.925781 359.792969 225.578125 366.710938 226.328125 373.582031 C 227.074219 380.453125 227.824219 387.328125 228.617188 394.199219 C 228.992188 397.332031 229.503906 400.417969 229.738281 403.5 C 230.722656 418.695312 231.75 433.839844 232.542969 449.035156 C 233.433594 466.003906 234.085938 482.972656 234.835938 499.992188 C 234.695312 499.992188 234.507812 499.992188 234.367188 499.992188 Z M 234.367188 499.945312 " fill-opacity="1" fill-rule="nonzero"/></g><path fill="#ff8210" d="M 560.109375 407.054688 C 570.582031 410.609375 580.867188 414.582031 591.898438 416.730469 C 600.078125 418.320312 609.195312 420.378906 612.421875 430.289062 C 613.167969 432.578125 614.382812 434.917969 614.335938 437.207031 C 614.105469 450.15625 613.683594 463.152344 613.074219 476.101562 C 612.84375 481.199219 612.328125 486.339844 611.441406 491.386719 C 610.503906 496.625 609.101562 497.371094 603.679688 497.839844 C 591.199219 498.960938 581.707031 494.332031 574.273438 484.28125 C 569.554688 477.878906 565.253906 471.054688 558.144531 466.613281 C 554.40625 464.273438 550.714844 462.265625 546.414062 462.453125 C 540.195312 462.683594 534.023438 463.199219 527.851562 464.039062 C 525.046875 464.414062 522.382812 465.863281 519.625 466.847656 C 514.671875 468.621094 510.835938 471.894531 510.042969 477.128906 C 509.246094 482.460938 511.023438 487.460938 515.792969 490.59375 C 519.296875 492.882812 523.085938 495.035156 527.011719 496.4375 C 537.484375 500.175781 547.957031 503.824219 558.988281 505.878906 C 568.429688 507.65625 577.921875 508.777344 587.410156 509.949219 C 595.453125 510.929688 603.398438 513.875 610.550781 518.269531 C 616.394531 521.867188 622.332031 525.375 627.941406 529.300781 C 635.375 534.539062 641.078125 541.457031 644.863281 549.730469 C 648.929688 558.613281 650.988281 568.242188 653.792969 577.59375 C 659.402344 596.339844 656.410156 615.367188 656.738281 634.25 C 656.785156 637.289062 655.664062 640.375 655.054688 643.460938 C 654.496094 646.3125 653.652344 649.117188 653.324219 652.015625 C 651.269531 670.621094 646.035156 688.433594 636.730469 704.515625 C 629.4375 717.136719 618.546875 727 605.734375 734.386719 C 597.179688 739.296875 588.347656 743.78125 578.527344 745.09375 C 566.5625 746.679688 554.546875 747.195312 542.71875 743.128906 C 536.222656 740.882812 529.070312 740.324219 522.851562 737.566406 C 515.230469 734.152344 508.125 729.335938 501.019531 724.804688 C 494.148438 720.410156 489.050781 714.050781 484.378906 707.507812 C 482.226562 704.46875 480.589844 700.914062 479.46875 697.363281 C 476.289062 687.40625 473.4375 677.308594 470.492188 667.257812 C 468.4375 660.195312 466.378906 653.136719 464.601562 646.03125 C 463.761719 642.804688 463.152344 639.488281 463.058594 636.167969 C 462.828125 628.546875 462.964844 620.976562 462.964844 613.355469 C 462.964844 613.355469 462.921875 613.355469 462.875 613.355469 C 462.875 605.734375 462.875 598.160156 462.875 590.542969 C 462.875 583.0625 466.332031 577.917969 473.34375 575.023438 C 482.414062 571.234375 491.671875 568.148438 501.488281 567.027344 C 508.359375 566.234375 515.136719 564.832031 522.058594 564.363281 C 529.117188 563.894531 532.339844 567.027344 532.667969 574.226562 C 533.183594 585.539062 535.753906 596.804688 541.457031 606.109375 C 549.636719 619.480469 559.269531 632.382812 574.085938 639.769531 C 579.183594 642.292969 584.652344 641.777344 589.839844 640.84375 C 591.898438 640.46875 594.375 637.664062 595.078125 635.46875 C 596.339844 631.492188 597.179688 627.097656 596.855469 622.984375 C 595.964844 610.550781 594.65625 598.207031 592.039062 585.867188 C 588.671875 569.925781 579.652344 557.398438 571.375 544.308594 C 568.058594 539.070312 562.027344 537.484375 555.902344 538.605469 C 546.460938 540.335938 537.484375 543.558594 528.460938 546.785156 C 514.53125 551.742188 500.179688 552.628906 486.058594 546.039062 C 480.777344 543.558594 475.308594 541.503906 471.335938 537.0625 C 465.539062 530.5625 463.433594 522.382812 463.339844 514.109375 C 463.199219 504.523438 464.554688 494.988281 465.304688 485.40625 C 465.445312 483.394531 465.910156 481.429688 466.097656 479.421875 C 466.894531 471.472656 466.707031 463.433594 469.933594 455.71875 C 471.847656 451.089844 471.847656 445.855469 473.390625 440.902344 C 476.945312 429.355469 483.957031 420.425781 491.4375 411.542969 C 493.445312 409.160156 495.550781 406.679688 498.074219 405.042969 C 508.6875 398.265625 520.1875 396.164062 532.527344 399.339844 " fill-opacity="1" fill-rule="nonzero"/><g clip-path="url(#eca3db67e3)"><path fill="#ff8210" d="M 407.101562 490.21875 C 400.230469 489.472656 393.359375 488.582031 386.488281 488.023438 C 382.464844 487.695312 378.398438 487.507812 374.425781 488.023438 C 364.46875 489.238281 354.371094 490.03125 345.113281 494.285156 C 335.390625 498.726562 326.648438 505.085938 321.367188 514.25 C 315.664062 524.066406 320.429688 534.863281 332.867188 536.125 C 334.828125 536.3125 336.980469 536.40625 338.898438 535.988281 C 347.589844 534.070312 356.238281 532.058594 364.886719 529.910156 C 371.152344 528.320312 377.324219 526.496094 383.496094 524.765625 C 387.75 523.550781 392.003906 522.242188 396.257812 521.074219 C 404.390625 518.875 412.523438 516.445312 420.753906 514.621094 C 430.710938 512.425781 440.855469 511.675781 449.644531 517.941406 C 452.589844 520.046875 454.785156 524.253906 455.765625 527.898438 C 457.917969 535.847656 456 543.933594 453.992188 551.695312 C 452.824219 556.136719 450.34375 560.296875 448.007812 564.316406 C 445.714844 568.335938 441.929688 570.488281 437.394531 571.84375 C 427.203125 574.882812 416.78125 575.394531 406.261719 575.722656 C 400.324219 575.910156 394.433594 577.546875 388.542969 578.527344 C 387 578.761719 385.457031 579.042969 383.914062 579.183594 C 364.515625 580.585938 345.113281 581.941406 325.714844 583.390625 C 323.328125 583.578125 320.945312 584.417969 318.609375 584.980469 C 316.035156 585.632812 313.464844 586.429688 310.847656 586.941406 C 298.925781 589.234375 294.90625 593.765625 292.429688 605.546875 C 288.734375 623.171875 288.5 641.03125 287.988281 658.933594 C 287.847656 664.496094 286.773438 670.015625 286.117188 675.578125 C 285.789062 678.476562 285.324219 681.328125 284.996094 684.226562 C 283.546875 696.425781 282.703125 708.722656 280.414062 720.734375 C 279.105469 727.609375 276.207031 734.480469 272.609375 740.511719 C 269.054688 746.496094 265.175781 752.429688 259.332031 757.011719 C 250.496094 763.976562 240.398438 767.765625 229.644531 767.8125 C 216.742188 767.859375 204.167969 764.445312 195.847656 753.507812 C 192.199219 748.691406 189.488281 742.519531 188.320312 736.628906 C 187.152344 730.648438 188.039062 724.148438 188.695312 717.976562 C 189.300781 712.226562 190.65625 706.570312 191.828125 700.914062 C 192.433594 698.109375 193.277344 695.304688 194.117188 692.546875 C 197.109375 682.777344 200.148438 673.007812 203.234375 663.234375 C 204.636719 658.792969 206.273438 654.398438 207.859375 650.003906 C 211.132812 641.03125 215.246094 632.289062 217.585938 623.078125 C 220.671875 611.15625 227.261719 600.734375 230.722656 588.953125 C 232.683594 582.21875 236.984375 576.191406 239.835938 569.644531 C 244.511719 558.800781 248.859375 547.859375 253.300781 536.921875 C 258.300781 524.578125 263.492188 512.332031 268.121094 499.851562 C 271.53125 490.6875 274.011719 481.246094 277.140625 471.988281 C 280.039062 463.339844 282.796875 454.597656 286.351562 446.230469 C 291.355469 434.355469 301.265625 428.933594 313.699219 428.183594 C 323.1875 427.625 332.117188 425.097656 340.953125 422.109375 C 353.996094 417.667969 366.992188 412.992188 379.988281 408.316406 C 387.9375 405.464844 395.929688 402.707031 403.691406 399.386719 C 417.574219 393.402344 431.972656 391.722656 446.886719 393.03125 C 450.8125 393.355469 453.242188 395.742188 454.738281 398.546875 C 457.214844 403.222656 459.507812 408.128906 459.320312 413.785156 C 458.992188 422.714844 459.414062 431.691406 456.703125 440.386719 C 456.09375 442.304688 455.8125 444.359375 455.765625 446.324219 C 455.675781 453.804688 452.214844 460.066406 448.753906 466.285156 C 446.230469 470.773438 443.566406 475.121094 440.761719 479.421875 C 436.039062 486.574219 428.417969 488.675781 420.660156 489.800781 C 416.265625 490.40625 411.730469 489.894531 407.242188 489.894531 C 407.242188 490.078125 407.242188 490.21875 407.195312 490.40625 Z M 407.101562 490.21875 " fill-opacity="1" fill-rule="nonzero"/></g><path fill="#ff8210" d="M 597.273438 299.8125 C 586.523438 299.8125 575.816406 299.8125 565.066406 299.8125 C 557.914062 299.8125 556.277344 302.105469 558.285156 308.929688 C 558.894531 311.082031 559.503906 313.230469 559.96875 315.429688 C 561.371094 321.925781 565.953125 326.789062 572.636719 327.488281 C 582.035156 328.46875 591.382812 327.863281 600.59375 325.480469 C 604.894531 324.355469 609.289062 323.46875 613.730469 323.1875 C 623.3125 322.582031 632.945312 322.300781 642.574219 322.066406 C 645.003906 322.019531 647.484375 322.347656 649.867188 322.765625 C 654.355469 323.5625 656.832031 326.226562 657.441406 330.902344 C 659.121094 343.289062 661.695312 355.632812 662.535156 368.066406 C 663.144531 376.902344 662.113281 385.972656 660.710938 394.714844 C 659.449219 402.753906 650.566406 406.726562 641.59375 404.015625 C 630.277344 400.554688 618.871094 397.796875 607.046875 396.441406 C 596.902344 395.273438 586.941406 392.328125 576.753906 391.019531 C 563.988281 389.382812 551.929688 385.222656 540.148438 380.734375 C 527.480469 375.875 515.886719 368.628906 508.03125 356.847656 C 507.285156 355.726562 506.441406 354.554688 506.207031 353.292969 C 504.667969 345.207031 503.355469 337.074219 501.769531 328.984375 C 499.054688 315.195312 499.054688 300.984375 494.707031 287.472656 C 493.027344 282.191406 492.558594 276.535156 491.578125 271.0625 C 489.753906 260.964844 487.976562 250.867188 486.058594 240.769531 C 485.125 235.957031 483.347656 231.234375 482.929688 226.417969 C 481.574219 211.460938 482.601562 211.226562 496.625 208 C 503.308594 206.457031 510.417969 206.644531 517.289062 206.175781 C 536.6875 204.867188 555.996094 202.90625 575.210938 199.867188 C 589.980469 197.527344 604.847656 195.9375 619.761719 194.535156 C 631.214844 193.460938 634.300781 195.425781 638.507812 206.316406 C 641.777344 214.777344 644.816406 223.425781 646.875 232.261719 C 648.746094 240.351562 646.359375 247.222656 636.027344 247.410156 C 622.613281 247.691406 609.195312 247.269531 595.777344 246.988281 C 588.207031 246.847656 580.585938 246.195312 573.011719 246.007812 C 569.320312 245.914062 565.71875 246.566406 564.457031 250.914062 C 563.289062 254.890625 565.25 260.964844 568.617188 262.882812 C 570.019531 263.675781 572.171875 264.003906 573.667969 263.539062 C 584.558594 260.3125 595.824219 260.777344 606.953125 260.265625 C 612.75 259.984375 618.546875 259.421875 624.25 258.488281 C 634.441406 256.804688 637.523438 257.789062 639.910156 267.699219 C 641.640625 274.945312 641.546875 282.75 641.125 290.277344 C 640.84375 295.371094 635.65625 298.925781 630.183594 299.019531 C 619.246094 299.160156 608.261719 299.019531 597.320312 299.019531 C 597.320312 299.253906 597.320312 299.488281 597.320312 299.71875 Z M 597.273438 299.8125 " fill-opacity="1" fill-rule="nonzero"/><g clip-path="url(#371230da7c)"><path fill="#ff8210" d="M 723.121094 261.949219 C 723.121094 276.488281 722.792969 291.023438 723.214844 305.5625 C 723.542969 317.390625 724.757812 329.21875 725.597656 341 C 726.066406 347.683594 726.394531 354.371094 727.09375 361.054688 C 727.515625 365.027344 728.21875 369 729.152344 372.882812 C 730.179688 377.183594 733.078125 379.566406 736.910156 382.183594 C 748.691406 390.085938 762.0625 394.386719 774.542969 400.695312 C 783.519531 405.230469 786.511719 409.671875 785.8125 419.675781 C 784.640625 436.179688 783.566406 452.679688 782.398438 469.183594 C 782.257812 470.960938 782.164062 472.734375 781.929688 474.511719 C 780.714844 484.003906 777.441406 487.367188 767.90625 488.351562 C 758.601562 489.332031 750.140625 486.433594 742.664062 481.199219 C 732.285156 473.90625 722.28125 466.097656 711.996094 458.710938 C 704.75 453.523438 697.316406 448.707031 689.929688 443.707031 C 689.554688 443.472656 689.136719 443.285156 688.761719 443.003906 C 680.441406 436.878906 675.390625 429.867188 676.046875 418.320312 C 677.308594 396.253906 676.746094 374.050781 677.402344 351.9375 C 677.914062 335.203125 679.316406 318.464844 680.019531 301.730469 C 680.441406 291.914062 679.925781 282.144531 677.820312 272.371094 C 676.417969 265.875 676.792969 259.050781 676.511719 252.316406 C 676 238.480469 675.625 224.597656 675.203125 210.757812 C 675.203125 209.402344 675.109375 208.09375 675.203125 206.738281 C 675.765625 196.125 675.71875 196.03125 686.144531 193.742188 C 693.996094 192.011719 701.804688 190.140625 709.75 189.207031 C 713.304688 188.785156 717.230469 190.046875 720.785156 191.171875 C 723.636719 192.058594 723.308594 195.097656 723.308594 197.527344 C 723.261719 206.269531 723.027344 214.964844 722.980469 223.707031 C 722.933594 236.46875 722.980469 249.183594 722.980469 261.949219 C 722.980469 261.949219 723.074219 261.949219 723.121094 261.949219 Z M 723.121094 261.949219 " fill-opacity="1" fill-rule="nonzero"/></g><path fill="#ff8210" d="M 623.921875 465.675781 C 623.921875 465.910156 624.015625 464.789062 623.78125 463.714844 C 622.191406 456.703125 626.445312 452.867188 631.402344 449.457031 C 633.972656 447.679688 636.871094 448.054688 639.769531 449.035156 C 649.585938 452.492188 659.496094 455.71875 669.265625 459.414062 C 672.117188 460.488281 674.550781 462.636719 677.167969 464.226562 C 691.707031 472.921875 706.433594 481.292969 720.738281 490.3125 C 729.011719 495.503906 737.097656 501.066406 744.203125 507.84375 C 748.691406 512.144531 751.078125 517.800781 753.085938 523.363281 C 757.574219 535.753906 759.585938 548.796875 761.5 561.839844 C 761.59375 562.492188 761.59375 563.195312 761.59375 563.847656 C 761.59375 570.394531 759.867188 572.261719 753.132812 572.03125 C 747.757812 571.84375 742.429688 571.140625 737.097656 570.675781 C 735.976562 570.582031 734.902344 570.207031 733.78125 570.113281 C 728.636719 569.597656 726.347656 571.703125 727.328125 576.5625 C 728.964844 584.605469 730.929688 592.597656 732.796875 600.640625 C 733.171875 602.183594 733.6875 603.679688 733.921875 605.175781 C 735.601562 615.320312 737.003906 625.464844 738.921875 635.5625 C 740.699219 644.957031 742.941406 654.261719 744.953125 663.609375 C 746.824219 672.304688 748.597656 681.046875 750.46875 689.789062 C 750.9375 691.984375 751.21875 694.277344 752.152344 696.238281 C 754.816406 701.941406 754.394531 708.066406 754.582031 714.050781 C 754.769531 719.472656 752.386719 720.96875 746.730469 719.988281 C 743.222656 719.378906 739.71875 718.632812 736.210938 717.929688 C 729.804688 716.667969 723.542969 715.921875 716.949219 717.464844 C 711.199219 718.773438 705.542969 714.191406 704.328125 708.066406 C 703.765625 705.214844 703.953125 702.269531 703.535156 699.417969 C 702.785156 694.371094 701.898438 689.320312 701.007812 684.273438 C 700.914062 683.617188 700.542969 683.011719 700.449219 682.355469 C 698.859375 670.433594 697.410156 658.46875 695.726562 646.546875 C 694.933594 640.84375 693.761719 635.1875 692.875 629.484375 C 692.40625 626.632812 692.128906 623.734375 691.988281 620.835938 C 691.566406 613.027344 690.726562 605.40625 688.761719 597.695312 C 686.285156 588.015625 685.722656 577.871094 684.179688 567.960938 C 683.527344 563.800781 682.589844 559.6875 681.796875 555.527344 C 681.234375 552.675781 680.8125 549.824219 680.113281 547.019531 C 678.898438 542.109375 676.699219 538.417969 671.417969 536.21875 C 663.144531 532.808594 654.589844 530.65625 645.941406 528.554688 C 642.292969 527.664062 638.554688 526.449219 635.328125 524.53125 C 633.175781 523.316406 631.214844 520.886719 630.371094 518.550781 C 627.988281 512.050781 626.257812 505.414062 626.023438 498.355469 C 625.792969 491.480469 624.527344 484.609375 623.921875 477.738281 C 623.640625 474.183594 623.875 470.632812 623.875 465.722656 Z M 623.921875 465.675781 " fill-opacity="1" fill-rule="nonzero"/><path fill="#ff8210" d="M 396.957031 297.570312 C 396.769531 307.246094 401.726562 315.101562 406.121094 323.046875 C 408.738281 327.816406 413.695312 329.6875 418.789062 328.984375 C 425.800781 327.957031 432.765625 326.179688 439.546875 324.125 C 446.136719 322.160156 447.679688 313.652344 442.257812 309.398438 C 440.902344 308.320312 438.515625 308.230469 436.601562 308.273438 C 425.054688 308.460938 424.023438 307.527344 423.558594 295.980469 C 423.511719 294.203125 423.558594 292.382812 423.933594 290.652344 C 424.773438 286.398438 426.316406 284.949219 430.570312 284.339844 C 433 284.011719 435.480469 283.824219 437.910156 283.917969 C 442.210938 284.105469 446.089844 283.171875 450.25 281.816406 C 454.738281 280.367188 460.023438 280.320312 464.789062 280.972656 C 467.035156 281.253906 469.792969 284.152344 470.773438 286.539062 C 473.71875 293.503906 475.636719 300.890625 478.488281 307.902344 C 483.535156 320.242188 481.757812 332.957031 481.386719 345.628906 C 481.199219 351.515625 475.730469 356.847656 468.808594 357.640625 C 457.214844 358.949219 446.230469 362.785156 434.871094 364.792969 C 416.03125 368.160156 397.191406 372.320312 377.699219 369.9375 C 371.667969 369.1875 366.152344 367.273438 361.523438 364.09375 C 358.390625 361.941406 356.472656 357.40625 354.976562 353.527344 C 352.03125 345.859375 349.320312 338.007812 347.3125 330.058594 C 345.300781 322.066406 344.132812 313.886719 342.917969 305.703125 C 341.839844 298.410156 340.8125 291.070312 340.390625 283.734375 C 339.738281 272.140625 338.941406 260.5 339.457031 248.90625 C 339.738281 241.894531 341.28125 234.507812 344.132812 228.101562 C 347.546875 220.480469 354.835938 215.902344 363.066406 214.683594 C 380.691406 212.066406 398.3125 208.328125 416.21875 210.757812 C 424.820312 210.757812 433.328125 210.757812 441.835938 210.757812 C 443.378906 210.757812 444.96875 211.039062 446.511719 211.226562 C 456.890625 212.675781 459.554688 214.964844 460.863281 225.390625 C 461.84375 233.105469 461.890625 241.003906 462.21875 248.8125 C 462.265625 250.355469 461.984375 251.945312 461.515625 253.441406 C 459.507812 260.125 455.347656 262.742188 448.382812 261.714844 C 446.839844 261.480469 445.109375 261.386719 443.847656 260.59375 C 435.804688 255.824219 426.96875 257.179688 418.320312 257.226562 C 411.636719 257.226562 404.953125 257.132812 398.78125 260.730469 C 393.5 263.816406 391.160156 267.792969 392.328125 273.960938 " fill-opacity="1" fill-rule="nonzero"/><path fill="#ff8210" d="M 314.726562 676.652344 C 316.082031 653.230469 317.390625 629.8125 318.792969 606.34375 C 319.214844 599.519531 322.582031 595.964844 329.59375 595.214844 C 334.269531 594.703125 338.988281 594.703125 343.664062 594.65625 C 359.558594 594.5625 375.40625 594.46875 391.113281 591.476562 C 398.96875 589.980469 407.101562 589.792969 415.097656 589.1875 C 421.40625 588.71875 427.953125 593.019531 430.664062 600.828125 C 433.140625 607.980469 434.214844 615.597656 432.488281 623.265625 C 431.644531 627.050781 429.636719 629.390625 425.660156 629.296875 C 417.667969 629.109375 409.488281 629.625 401.679688 628.175781 C 392.097656 626.445312 382.980469 627.941406 373.722656 629.390625 C 371.433594 629.765625 370.125 631.027344 370.03125 633.410156 C 369.984375 634.765625 369.890625 636.074219 369.9375 637.429688 C 370.125 642.851562 371.246094 644.488281 376.527344 644.628906 C 382.511719 644.816406 388.542969 644.210938 394.574219 643.929688 C 397.472656 643.789062 400.417969 643.226562 403.222656 643.507812 C 409.113281 644.164062 412.292969 647.855469 412.570312 653.792969 C 412.664062 655.570312 412.570312 657.390625 412.617188 659.167969 C 412.710938 667.164062 409.394531 671.417969 401.539062 671.976562 C 396.492188 672.351562 391.253906 671.789062 386.207031 671.136719 C 383.074219 670.714844 379.988281 669.078125 378.023438 672.914062 C 376.480469 675.859375 377.511719 681.46875 380.222656 683.335938 C 382.371094 684.832031 384.898438 686.050781 387.421875 686.609375 C 396.492188 688.574219 405.605469 687.871094 414.722656 686.421875 C 420.660156 685.488281 426.738281 684.414062 432.671875 684.738281 C 443.800781 685.347656 449.035156 689.132812 451.140625 701.988281 C 452.074219 707.691406 451.839844 713.582031 451.652344 719.378906 C 451.417969 727.609375 445.667969 733.5 437.441406 734.199219 C 435.246094 734.386719 432.953125 734.199219 430.757812 734.152344 C 423.839844 733.964844 416.917969 733.59375 410 733.546875 C 399.480469 733.453125 388.964844 733.40625 378.492188 733.546875 C 371.574219 733.59375 364.65625 734.058594 357.6875 734.105469 C 349.179688 734.152344 340.671875 734.339844 332.257812 733.777344 C 328.613281 733.546875 324.824219 732.050781 321.601562 730.179688 C 317.253906 727.65625 315.570312 723.308594 315.570312 718.210938 C 315.664062 704.328125 315.570312 690.488281 315.570312 676.605469 L 314.539062 676.605469 Z M 314.726562 676.652344 " fill-opacity="1" fill-rule="nonzero"/><path fill="#ff8210" d="M 286.164062 356.660156 C 290.417969 355.445312 292.242188 352.921875 292.195312 349.132812 C 292.054688 335.53125 293.644531 321.832031 289.8125 308.460938 C 289.390625 306.964844 289.203125 305.378906 289.0625 303.835938 C 288.453125 296.960938 288.269531 290.089844 285.882812 283.40625 C 284.480469 279.570312 284.761719 275.039062 284.761719 270.78125 C 284.761719 266.4375 287.660156 263.257812 291.539062 262.648438 C 298.273438 261.621094 305.191406 260.453125 311.875 263.816406 C 315.804688 265.78125 318.234375 268.585938 319.261719 272.699219 C 321.972656 283.125 323.5625 293.597656 323.515625 304.441406 C 323.515625 315.148438 324.636719 325.851562 325.667969 336.511719 C 327.257812 352.453125 327.257812 368.300781 322.957031 383.773438 C 320.570312 392.46875 314.539062 399.246094 306.96875 403.78125 C 295.375 410.699219 283.453125 417.246094 271.203125 422.855469 C 259.984375 427.996094 251.710938 422.667969 249.140625 410.234375 C 248.25 405.886719 246.660156 401.726562 245.492188 397.425781 C 243.296875 389.242188 241.097656 381.109375 239.136719 372.882812 C 237.21875 364.652344 235.582031 356.378906 233.804688 348.105469 C 233.199219 345.253906 232.589844 342.449219 231.9375 339.644531 C 231.609375 338.335938 230.953125 337.117188 230.765625 335.808594 C 229.457031 327.675781 227.777344 319.542969 227.167969 311.359375 C 226.328125 300.890625 226.1875 290.371094 226.09375 279.851562 C 226 271.8125 227.308594 270.78125 234.835938 267.886719 C 239.695312 266.015625 244.511719 264.660156 249.746094 264.519531 C 251.898438 264.472656 254.046875 263.445312 256.152344 262.789062 C 257.835938 262.273438 259.519531 261.480469 261.246094 261.199219 C 267.371094 260.21875 269.523438 261.855469 270.035156 268.070312 C 270.503906 273.402344 270.503906 278.777344 270.878906 284.152344 C 271.53125 293.269531 272.234375 302.433594 273.074219 311.546875 C 273.449219 315.753906 274.148438 319.960938 274.804688 324.167969 C 275.414062 328.144531 275.832031 332.164062 276.90625 335.996094 C 278.402344 341.558594 280.226562 347.078125 282.285156 352.453125 C 282.9375 354.136719 284.855469 355.304688 286.117188 356.613281 Z M 286.164062 356.660156 " fill-opacity="1" fill-rule="nonzero"/><path fill="#ff8210" d="M 257.226562 238.902344 C 256.386719 249.324219 250.402344 253.113281 241.003906 249 C 233.621094 245.773438 228.992188 237.40625 230.160156 229.410156 C 230.859375 224.875 235.816406 219.265625 239.882812 218.519531 C 244.792969 217.628906 251.851562 221.464844 253.953125 226.746094 C 255.496094 230.625 256.152344 234.832031 257.226562 238.902344 Z M 257.226562 238.902344 " fill-opacity="1" fill-rule="nonzero"/><path fill="#ff8210" d="M 304.910156 236.65625 C 305.003906 245.679688 301.636719 250.308594 295.46875 250.679688 C 288.128906 251.148438 281.253906 245.304688 280.789062 238.105469 C 280.648438 235.910156 280.554688 233.570312 281.070312 231.46875 C 281.441406 229.878906 282.425781 227.726562 283.734375 227.167969 C 287.847656 225.4375 291.679688 222.210938 296.871094 225.015625 C 302.105469 227.867188 305.191406 231.609375 304.957031 236.65625 Z M 304.910156 236.65625 " fill-opacity="1" fill-rule="nonzero"/><g clip-path="url(#119f31ab5f)"><g clip-path="url(#d49fcb418c)"><g clip-path="url(#19b8ba753a)"><path fill="#ff8210" d="M 1035.679688 1441.742188 C 1010.621094 1431.179688 986.492188 1418.488281 963.59375 1403.800781 C 928.117188 1381.457031 889.515625 1364.625 849.136719 1353.527344 C 811.796875 1343.757812 773.761719 1340.558594 735.40625 1339.75 C 707.457031 1339.140625 684.132812 1350.3125 664.125 1367.996094 C 638.726562 1390.5625 614.414062 1413.96875 590.273438 1437.804688 C 568.234375 1459.308594 548.234375 1482.78125 523.34375 1500.867188 C 488.914062 1526.734375 448.359375 1543.414062 405.605469 1549.371094 C 374.1875 1553.398438 343.113281 1558.296875 311.5625 1562.625 C 288.855469 1565.75 266.144531 1563.082031 243.921875 1558.457031 C 189.570312 1547.054688 140.328125 1525.582031 96.878906 1489.996094 C 45.675781 1448.136719 -1.886719 1402.074219 -45.503906 1351.945312 C -77.75 1314.730469 -99.640625 1271.179688 -117.769531 1225.652344 C -127.976562 1200.945312 -135.128906 1175.035156 -138.75 1148.496094 C -142.699219 1118.558594 -139.847656 1087.964844 -129.613281 1059.511719 C -118.75 1028.796875 -106.804688 998.914062 -85.402344 973.882812 C -43.859375 925.074219 7.804688 893.699219 72.660156 890.144531 C 97.226562 888.558594 122.464844 891.242188 147.132812 894.402344 C 201.691406 901.191406 256.828125 899.1875 310.757812 888.335938 C 351.476562 880.40625 389.371094 864.011719 427.058594 846.441406 C 468.066406 827.0625 508.429688 806.679688 550.292969 789.480469 C 610.621094 764.78125 673.046875 746.058594 738.222656 740.113281 C 775.472656 736.820312 812.441406 736.664062 848.699219 745.597656 C 911.734375 761.148438 961.769531 794.902344 992.753906 853.269531 C 1010.355469 885.90625 1026.210938 919.230469 1043.074219 951.902344 C 1057.996094 981.5625 1073.050781 1010.917969 1094.878906 1036.351562 C 1118.992188 1065.675781 1150.460938 1088.082031 1185.773438 1101.671875 C 1212.578125 1111.550781 1239.910156 1120.214844 1266.675781 1129.351562 C 1296.480469 1139.816406 1325.355469 1152.40625 1351.144531 1171.246094 C 1397.132812 1204.324219 1413.480469 1249.796875 1406.558594 1304.660156 C 1399.839844 1354.90625 1374.503906 1395.589844 1339.363281 1430.550781 C 1322.144531 1447.640625 1302.246094 1461.753906 1280.667969 1472.242188 C 1250.972656 1486.421875 1219.738281 1488.359375 1187.496094 1485.152344 C 1151.816406 1481.53125 1117.871094 1471.433594 1084.421875 1459.378906 Z M 1035.679688 1441.742188 " fill-opacity="1" fill-rule="nonzero"/></g></g></g></svg>